<svg width="1047" height="900" viewBox="0 0 1047 900" fill="none" xmlns="http://www.w3.org/2000/svg">
<path d="M437 345.5C607 224.7 688.167 62.5 707.5 -3.5L895.5 -86.5C1010.17 -71.8333 1244.4 -34.7 1264 -3.5C1288.5 35.5 1230 125.5 1159 133C1088 140.5 912.5 345.5 854 409C795.5 472.5 788 787 637 831C486 875 307.5 811.5 271 716.5C234.5 621.5 224.5 496.5 437 345.5Z" fill="#FF7200" fill-opacity="0.27"/>
<path d="M297.15 362.797C568.042 190.882 697.379 -39.9519 728.186 -133.879L1027.76 -252C1210.48 -231.127 1583.72 -178.281 1614.96 -133.879C1654 -78.3767 1560.78 49.706 1447.64 60.3796C1334.5 71.0531 1054.85 362.797 961.631 453.167C868.412 543.536 856.461 991.114 615.846 1053.73C375.231 1116.35 90.7949 1025.98 32.6329 890.783C-25.529 755.584 -41.4638 577.692 297.15 362.797Z" fill="#FF7200" fill-opacity="0.27"/>
</svg>
