<svg width="59" height="46" viewBox="0 0 59 46" fill="none" xmlns="http://www.w3.org/2000/svg">
<path d="M42.056 23.216C42.056 27.6107 41.096 31.536 39.176 34.992C37.256 38.4053 34.5253 41.0933 30.984 43.056C27.4427 45.0187 23.2827 46 18.504 46H0.456V0.688H18.504C23.2827 0.688 27.4427 1.648 30.984 3.568C34.568 5.44533 37.2987 8.09067 39.176 11.504C41.096 14.9173 42.056 18.8213 42.056 23.216ZM17.352 34.736C21.064 34.736 23.9867 33.7333 26.12 31.728C28.2533 29.7227 29.32 26.8853 29.32 23.216C29.32 19.5893 28.2533 16.7733 26.12 14.768C23.9867 12.72 21.064 11.696 17.352 11.696H13.064V34.736H17.352ZM58.778 33.712V46H46.042V33.712H58.778Z" fill="#021718"/>
</svg>
